<?xml version="1.0" standalone="no"?>
<!DOCTYPE svg PUBLIC "-//W3C//DTD SVG 20010904//EN"
 "http://www.w3.org/TR/2001/REC-SVG-20010904/DTD/svg10.dtd">
<svg version="1.0" xmlns="http://www.w3.org/2000/svg"
 width="700.000000pt" height="700.000000pt" viewBox="0 0 700.000000 700.000000"
 preserveAspectRatio="xMidYMid meet">
<metadata>
Created by potrace 1.14, written by Peter Selinger 2001-2017
</metadata>
<g transform="translate(0.000000,700.000000) scale(0.100000,-0.100000)"
fill="#000000" stroke="none">
<path d="M3278 6995 c-1 -1 -42 -5 -89 -9 -47 -4 -95 -8 -105 -10 -10 -2 -41
-7 -69 -10 -428 -56 -875 -210 -1270 -439 -103 -60 -265 -165 -315 -204 -8 -6
-51 -40 -95 -74 -342 -266 -650 -623 -875 -1014 -47 -83 -170 -327 -170 -340
0 -3 -9 -24 -20 -48 -57 -123 -157 -435 -186 -582 -2 -11 -10 -54 -19 -95 -29
-147 -36 -200 -52 -370 -15 -165 -8 -592 12 -711 2 -13 6 -46 9 -74 9 -78 22
-152 51 -285 21 -96 91 -339 114 -395 5 -11 25 -65 46 -120 63 -166 249 -531
312 -610 4 -6 34 -49 65 -95 170 -255 433 -535 708 -755 92 -74 370 -265 386
-265 4 0 15 -6 23 -14 26 -22 298 -158 411 -205 267 -111 589 -200 859 -237
25 -3 57 -8 71 -10 163 -25 682 -25 842 1 13 2 46 7 73 10 72 10 86 12 120 19
17 3 44 8 60 11 194 37 411 101 622 184 130 52 418 192 473 231 15 11 33 20
39 20 6 0 11 5 11 10 0 6 5 10 10 10 15 0 220 141 330 227 152 118 324 280
450 422 36 41 70 79 76 85 6 6 48 61 94 121 150 197 277 405 383 628 26 53 47
99 47 102 0 2 11 28 24 57 57 127 151 421 182 573 17 81 54 301 59 350 4 33 9
71 11 85 9 47 11 525 3 605 -15 165 -21 220 -24 225 -2 3 -6 30 -10 60 -4 30
-22 123 -40 205 -53 232 -102 385 -197 610 -387 911 -1160 1625 -2103 1943
-168 57 -420 119 -555 137 -19 3 -46 7 -60 10 -13 2 -52 7 -86 11 -33 3 -74 8
-90 10 -33 5 -540 14 -546 9z m1332 -1758 c62 -12 189 -39 228 -49 l43 -11 -6
-106 c-3 -58 -8 -131 -10 -161 -2 -30 -7 -93 -10 -140 -10 -162 -15 -235 -20
-295 -2 -33 -7 -96 -9 -140 -3 -44 -9 -123 -12 -175 -4 -52 -7 -105 -8 -117 0
-13 -5 -23 -10 -24 -13 -1 -417 -1 -431 0 -7 1 -10 125 -9 354 0 193 -2 357
-4 364 -3 11 -57 11 -172 -2 -125 -14 -296 -84 -414 -169 -74 -53 -216 -208
-278 -301 -78 -117 -161 -281 -211 -415 -19 -52 -38 -104 -43 -115 -4 -11 -8
-22 -9 -25 -27 -86 -28 -115 -27 -800 0 -388 1 -713 1 -722 1 -16 27 -18 348
-20 l347 -3 0 -205 0 -205 -887 -3 c-488 -1 -887 1 -888 5 -1 10 -1 384 0 401
1 9 61 12 266 12 l265 0 0 1293 0 1292 -265 0 c-146 0 -265 2 -266 5 -1 7 -1
370 0 395 1 20 7 20 470 20 258 0 472 -2 474 -5 3 -3 8 -30 11 -60 4 -30 9
-66 11 -80 2 -14 7 -47 10 -75 5 -48 9 -78 19 -155 3 -19 12 -93 21 -165 8
-71 18 -150 22 -175 3 -25 6 -55 7 -67 0 -13 1 -23 3 -23 1 0 19 32 39 72 49
97 133 232 200 320 266 352 556 491 1009 483 94 -2 181 -6 195 -8z"/>
</g>
</svg>
