<svg id="Layer_1" data-name="Layer 1" xmlns="http://www.w3.org/2000/svg" xmlns:xlink="http://www.w3.org/1999/xlink" viewBox="0 0 480 133.08"><defs><linearGradient id="linear-gradient" x1="19.4" y1="113.68" x2="113.68" y2="19.4" gradientUnits="userSpaceOnUse"><stop offset="0" stop-color="#3e9ade"/><stop offset="1" stop-color="#503ede"/></linearGradient></defs><rect width="133.08" height="133.08" rx="66.23" style="fill:url(#linear-gradient)"/><path d="M40.26,99.81v-8H50.4V42.67H40.26v-8H58.31l1.92,15.4a34.78,34.78,0,0,1,9.15-12.43q5.39-4.39,14.23-4.39a26.19,26.19,0,0,1,4.85.4c1.42.27,2.88.61,4.36,1l-3,9.28c-1.36-.37-2.6-.65-3.71-.84a24.09,24.09,0,0,0-3.83-.28,17.7,17.7,0,0,0-12.87,5.32Q64,53.5,60.79,64.25V91.83H74v8ZM82.8,56.71V42.54l1-7.85h9l-1.48,22Z" style="fill:#fff"/><path d="M170.78,90.53V41h11.39l.18,15.81-1.6-3.58a17.63,17.63,0,0,1,3.58-6.77,19.4,19.4,0,0,1,5.88-4.76,15.08,15.08,0,0,1,7-1.73,15.87,15.87,0,0,1,3.05.28,12.07,12.07,0,0,1,2.4.66l-3.1,12.7a10.65,10.65,0,0,0-2.54-.94,11.94,11.94,0,0,0-3-.38,11.6,11.6,0,0,0-10.68,7.11,12,12,0,0,0-.9,4.74V90.53Z"/><path d="M227,91.47a19.35,19.35,0,0,1-11.1-3.38,24.43,24.43,0,0,1-8-9.23,28.34,28.34,0,0,1-3-13.26,28.39,28.39,0,0,1,3-13.27,23,23,0,0,1,8.18-9.12,21.18,21.18,0,0,1,11.66-3.29A20.8,20.8,0,0,1,234.66,41a17,17,0,0,1,5.45,3.06A18,18,0,0,1,244,48.57,16.55,16.55,0,0,1,246.14,54l-2.54-.66V41h11.66V90.53H243.5V78.68l2.73-.48a14.75,14.75,0,0,1-2.4,4.94,18.16,18.16,0,0,1-4.33,4.23,23.21,23.21,0,0,1-5.73,3A19.93,19.93,0,0,1,227,91.47Zm3.2-10.26a13.13,13.13,0,0,0,7.15-2,13.47,13.47,0,0,0,4.85-5.5A18.35,18.35,0,0,0,244,65.6a17.77,17.77,0,0,0-1.73-8,13.61,13.61,0,0,0-4.85-5.46,13,13,0,0,0-7.15-2,12.79,12.79,0,0,0-7.11,2,13.29,13.29,0,0,0-4.74,5.46,17.89,17.89,0,0,0-1.7,8,18.48,18.48,0,0,0,1.7,8.14,13.16,13.16,0,0,0,4.74,5.5A12.87,12.87,0,0,0,230.24,81.21Z"/><path d="M268.72,90.53V41H280l.19,10.16L278,52.24a14.11,14.11,0,0,1,3.66-6.16,21.38,21.38,0,0,1,6.5-4.47,18.6,18.6,0,0,1,7.71-1.69,18.35,18.35,0,0,1,9.46,2.25A13.91,13.91,0,0,1,311.09,49,28.73,28.73,0,0,1,313,60.23v30.3H301.45V61.08a16.36,16.36,0,0,0-1-6.25,7.18,7.18,0,0,0-3.2-3.68A10.32,10.32,0,0,0,292,50.07a12.9,12.9,0,0,0-4.65.81,10.78,10.78,0,0,0-3.68,2.26,11.18,11.18,0,0,0-2.44,3.33,9.5,9.5,0,0,0-.9,4.14V90.53H268.72Z"/><path d="M333.06,112.16,343.6,87.8l.09,7.71L319.23,41h13.36l13.64,32.36a20.38,20.38,0,0,1,1.32,3.25c.43,1.34.81,2.68,1.13,4l-2.36.76c.45-1.19.91-2.46,1.42-3.81s1-2.74,1.41-4.19L360.82,41h13.45l-20.7,49.58-8.46,21.63Z"/><path d="M403.8,91.47A28.14,28.14,0,0,1,390,88.18a23.9,23.9,0,0,1-9.31-9,25.22,25.22,0,0,1-3.34-13,28.81,28.81,0,0,1,1.88-10.63,25.47,25.47,0,0,1,5.22-8.33,23,23,0,0,1,8-5.45,26.56,26.56,0,0,1,10.21-1.93,22.07,22.07,0,0,1,9.12,1.89,22.82,22.82,0,0,1,7.35,5.12,22.11,22.11,0,0,1,4.74,7.72,26.3,26.3,0,0,1,1.56,9.73l-.09,4H385.18L383,60.43h32.64l-1.5,1.6V60a10.31,10.31,0,0,0-1.88-5.12,11.26,11.26,0,0,0-4.1-3.48,11.88,11.88,0,0,0-5.5-1.28,15.44,15.44,0,0,0-7.76,1.8A11.34,11.34,0,0,0,390.16,57a19.33,19.33,0,0,0-1.6,8.33,16.7,16.7,0,0,0,2,8.37,13.72,13.72,0,0,0,5.74,5.5A18.61,18.61,0,0,0,405,81.12,17.58,17.58,0,0,0,411.42,80a22.19,22.19,0,0,0,6.3-4l5.74,8a24.84,24.84,0,0,1-5.79,4,33.91,33.91,0,0,1-6.82,2.59A27.46,27.46,0,0,1,403.8,91.47Z"/><path d="M435.7,90.53V20.91h11.47v30.2L445,52.24a14.11,14.11,0,0,1,3.66-6.16,21.33,21.33,0,0,1,6.49-4.47,18.67,18.67,0,0,1,7.72-1.69,18.38,18.38,0,0,1,9.46,2.25A14,14,0,0,1,478.07,49,28.73,28.73,0,0,1,480,60.23v30.3H468.43V61.08a16.36,16.36,0,0,0-1-6.25,7.18,7.18,0,0,0-3.2-3.68,10.32,10.32,0,0,0-5.27-1.08,12.9,12.9,0,0,0-4.65.81,10.78,10.78,0,0,0-3.68,2.26,11.18,11.18,0,0,0-2.44,3.33,9.5,9.5,0,0,0-.9,4.14V90.53H435.7Z"/></svg>