<svg id="Layer_1" data-name="Layer 1" xmlns="http://www.w3.org/2000/svg" xmlns:xlink="http://www.w3.org/1999/xlink" viewBox="0 0 480 131.93"><defs><linearGradient id="linear-gradient" x1="-173.3" y1="715.97" x2="-173.3" y2="621.11" gradientTransform="translate(-269.24 -518.08) rotate(-45)" gradientUnits="userSpaceOnUse"><stop offset="0" stop-opacity="0.1"/><stop offset="1" stop-opacity="0.3"/></linearGradient></defs><rect width="131.93" height="131.93" rx="65.96" transform="translate(-27.32 65.96) rotate(-45)" style="fill:#0d6efd"/><path d="M65.43,41.1,58,33.63,42.51,48.55,50,56.06V99l31.2,31.19a65.68,65.68,0,0,0,31.39-17.53h0a65.71,65.71,0,0,0,18.71-37.73L89.42,33Z" style="fill:url(#linear-gradient)"/><path d="M50,99V48.55H42.51V33.63H58V46.15h4.57a19.63,19.63,0,0,1,8.33-9.79A25.31,25.31,0,0,1,84,33h5.44V45.72H83.33q-9.26,0-14,5.33T64.6,65.31V99Z" style="fill:#fff"/><path d="M164.4,91.09V52.31h-5.78V40.84h11.89v9.63H174a15.07,15.07,0,0,1,6.41-7.54,19.46,19.46,0,0,1,10.09-2.6h4.19v9.8H190q-7.12,0-10.77,4.11t-3.64,11V91.09Z"/><path d="M216.75,92q-8.64,0-13.61-4.27a14,14,0,0,1-5-11.22q0-7.29,5-11.31t14.4-4H233.5V59.1Q233.5,49,222.11,49q-9.65,0-11.56,7H199.16a17.88,17.88,0,0,1,7.41-12q6-4.19,15.62-4.19,10.8,0,16.5,5t5.7,14.45V79.62h5.44V91.09H238v-8H234.5a18,18,0,0,1-7,6.54A22.75,22.75,0,0,1,216.75,92Zm1.67-8.88a17.31,17.31,0,0,0,7.71-1.67,13.86,13.86,0,0,0,5.4-4.48,10.63,10.63,0,0,0,2-6.24V69.15H218.17Q209,69.15,209,76a6.17,6.17,0,0,0,2.51,5.24A11.32,11.32,0,0,0,218.42,83.13Z"/><path d="M260.47,91.09V52.31h-5.78V40.84h11.89v7.95h3.52a18.05,18.05,0,0,1,7.16-6.57,23.44,23.44,0,0,1,10.85-2.31q10,0,15.7,5.66t5.66,15.12v30.4H298.08V62.7q0-6.21-3.31-9.47T285,50q-6.45,0-9.8,3.26t-3.35,9.47V91.09Z"/><path d="M320.1,111.19v-9.13h11.65l4.6-11L314.24,40.84h11.89L342,77.69h.41l15.25-36.85H369L347.58,91.09,343,102a25,25,0,0,1-4,6.78q-2.13,2.43-7,2.43Z"/><path d="M397.41,92.1a28.5,28.5,0,0,1-13.86-3.23,22.13,22.13,0,0,1-9.09-9.17,29,29,0,0,1-3.18-13.9A28.64,28.64,0,0,1,374.42,52a22.11,22.11,0,0,1,8.92-9A27.91,27.91,0,0,1,397,39.83a26.73,26.73,0,0,1,13,3,20.79,20.79,0,0,1,8.42,8.46,27,27,0,0,1,3,13v4.19h-39.2q.68,6.87,4.61,10.59t10.55,3.73a15.4,15.4,0,0,0,8-1.84,9.55,9.55,0,0,0,4.27-5.53h11.56A20,20,0,0,1,413,87.7Q406.79,92.1,397.41,92.1ZM382.5,60.52h28a12.59,12.59,0,0,0-4.19-8.5A13.91,13.91,0,0,0,397,49a15,15,0,0,0-9.55,3A14.11,14.11,0,0,0,382.5,60.52Z"/><path d="M431,91.09V20.73h11.39V48.54h.34a15.91,15.91,0,0,1,6.66-6.45,21.58,21.58,0,0,1,10-2.18q9.45,0,15,5.66T480,60.69v30.4H468.61V62.7q0-6.21-3.31-9.47T455.54,50q-6.45,0-9.8,3.26t-3.35,9.47V91.09Z"/></svg>