<svg id="visual" viewBox="0 0 1920 1080" width="1920" height="1080" xmlns="http://www.w3.org/2000/svg" xmlns:xlink="http://www.w3.org/1999/xlink" version="1.1"><g transform="translate(962.8632136945289 534.7401150869858)"><path d="M198.5 -230.4C255.1 -189 297.4 -124.5 312.8 -52.9C328.1 18.7 316.5 97.4 277.1 154.8C237.8 212.2 170.7 248.5 98.5 277.9C26.3 307.3 -51 329.8 -104.8 303.5C-158.6 277.1 -188.9 201.8 -228.6 132.3C-268.3 62.8 -317.3 -0.9 -324.2 -73.7C-331 -146.5 -295.7 -228.4 -234.6 -268.9C-173.6 -309.5 -86.8 -308.7 -7.9 -299.3C70.9 -289.9 141.8 -271.7 198.5 -230.4" fill="#3d36dd"></path></g></svg>