<svg id="Layer_1" data-name="Layer 1" xmlns="http://www.w3.org/2000/svg" xmlns:xlink="http://www.w3.org/1999/xlink" viewBox="0 0 480 480"><defs><linearGradient id="linear-gradient" x1="249.66" y1="480" x2="249.66" y2="134.84" gradientTransform="translate(-99.41 240) rotate(-45)" gradientUnits="userSpaceOnUse"><stop offset="0" stop-opacity="0.1"/><stop offset="1" stop-opacity="0.3"/></linearGradient></defs><rect width="480" height="480" rx="240" transform="translate(-99.41 240) rotate(-45)" style="fill:#0d6efd"/><path d="M238.05,149.54l-27.16-27.16-56.24,54.25L182,204V360L295.5,473.52a239,239,0,0,0,114.21-63.81h0a238.92,238.92,0,0,0,68.08-137.26L325.35,120Z" style="fill:url(#linear-gradient)"/><path d="M182,360V176.63H154.65V122.38h56.24v45.54h16.64q9.5-23.35,30.29-35.64T305.55,120h19.8v46.34H303.17q-33.68,0-50.89,19.4t-17.23,51.88V360Z" style="fill:#fff"/></svg>