<svg id="visual" viewBox="0 0 1920 1080" width="1920" height="1080" xmlns="http://www.w3.org/2000/svg" xmlns:xlink="http://www.w3.org/1999/xlink" version="1.1"><path d="M0 217L32 247.7C64 278.3 128 339.7 192 343.3C256 347 320 293 384 284C448 275 512 311 576 293C640 275 704 203 768 194C832 185 896 239 960 244.3C1024 249.7 1088 206.3 1152 200.8C1216 195.3 1280 227.7 1344 267.3C1408 307 1472 354 1536 363C1600 372 1664 343 1728 317.7C1792 292.3 1856 270.7 1888 259.8L1920 249L1920 0L1888 0C1856 0 1792 0 1728 0C1664 0 1600 0 1536 0C1472 0 1408 0 1344 0C1280 0 1216 0 1152 0C1088 0 1024 0 960 0C896 0 832 0 768 0C704 0 640 0 576 0C512 0 448 0 384 0C320 0 256 0 192 0C128 0 64 0 32 0L0 0Z" fill="#3d63dd"></path><path d="M0 411L32 421.8C64 432.7 128 454.3 192 456.2C256 458 320 440 384 438.2C448 436.3 512 450.7 576 443.5C640 436.3 704 407.7 768 409.5C832 411.3 896 443.7 960 441.8C1024 440 1088 404 1152 391.5C1216 379 1280 390 1344 426C1408 462 1472 523 1536 544.5C1600 566 1664 548 1728 510.2C1792 472.3 1856 414.7 1888 385.8L1920 357L1920 247L1888 257.8C1856 268.7 1792 290.3 1728 315.7C1664 341 1600 370 1536 361C1472 352 1408 305 1344 265.3C1280 225.7 1216 193.3 1152 198.8C1088 204.3 1024 247.7 960 242.3C896 237 832 183 768 192C704 201 640 273 576 291C512 309 448 273 384 282C320 291 256 345 192 341.3C128 337.7 64 276.3 32 245.7L0 215Z" fill="#2288e2"></path><path d="M0 638L32 627.2C64 616.3 128 594.7 192 605.5C256 616.3 320 659.7 384 665.2C448 670.7 512 638.3 576 598.7C640 559 704 512 768 540.8C832 569.7 896 674.3 960 694.2C1024 714 1088 649 1152 627.3C1216 605.7 1280 627.3 1344 647.2C1408 667 1472 685 1536 708.3C1600 731.7 1664 760.3 1728 720.7C1792 681 1856 573 1888 519L1920 465L1920 355L1888 383.8C1856 412.7 1792 470.3 1728 508.2C1664 546 1600 564 1536 542.5C1472 521 1408 460 1344 424C1280 388 1216 377 1152 389.5C1088 402 1024 438 960 439.8C896 441.7 832 409.3 768 407.5C704 405.7 640 434.3 576 441.5C512 448.7 448 434.3 384 436.2C320 438 256 456 192 454.2C128 452.3 64 430.7 32 419.8L0 409Z" fill="#3e9ade"></path><path d="M0 919L32 935.2C64 951.3 128 983.7 192 998C256 1012.3 320 1008.7 384 999.7C448 990.7 512 976.3 576 978.2C640 980 704 998 768 1007C832 1016 896 1016 960 998C1024 980 1088 944 1152 933.2C1216 922.3 1280 936.7 1344 940.3C1408 944 1472 937 1536 940.7C1600 944.3 1664 958.7 1728 971.2C1792 983.7 1856 994.3 1888 999.7L1920 1005L1920 463L1888 517C1856 571 1792 679 1728 718.7C1664 758.3 1600 729.7 1536 706.3C1472 683 1408 665 1344 645.2C1280 625.3 1216 603.7 1152 625.3C1088 647 1024 712 960 692.2C896 672.3 832 567.7 768 538.8C704 510 640 557 576 596.7C512 636.3 448 668.7 384 663.2C320 657.7 256 614.3 192 603.5C128 592.7 64 614.3 32 625.2L0 636Z" fill="#2288e2"></path><path d="M0 1081L32 1081C64 1081 128 1081 192 1081C256 1081 320 1081 384 1081C448 1081 512 1081 576 1081C640 1081 704 1081 768 1081C832 1081 896 1081 960 1081C1024 1081 1088 1081 1152 1081C1216 1081 1280 1081 1344 1081C1408 1081 1472 1081 1536 1081C1600 1081 1664 1081 1728 1081C1792 1081 1856 1081 1888 1081L1920 1081L1920 1003L1888 997.7C1856 992.3 1792 981.7 1728 969.2C1664 956.7 1600 942.3 1536 938.7C1472 935 1408 942 1344 938.3C1280 934.7 1216 920.3 1152 931.2C1088 942 1024 978 960 996C896 1014 832 1014 768 1005C704 996 640 978 576 976.2C512 974.3 448 988.7 384 997.7C320 1006.7 256 1010.3 192 996C128 981.7 64 949.3 32 933.2L0 917Z" fill="#3d63dd"></path></svg>