<svg id="visual" viewBox="0 0 1920 1080" width="1920" height="1080" xmlns="http://www.w3.org/2000/svg" xmlns:xlink="http://www.w3.org/1999/xlink" version="1.1"><path d="M0 131L32 125.5C64 120 128 109 192 101.7C256 94.3 320 90.7 384 94.3C448 98 512 109 576 107.3C640 105.7 704 91.3 768 107.5C832 123.7 896 170.3 960 170.3C1024 170.3 1088 123.7 1152 112.8C1216 102 1280 127 1344 123.3C1408 119.7 1472 87.3 1536 80.2C1600 73 1664 91 1728 116.2C1792 141.3 1856 173.7 1888 189.8L1920 206L1920 0L1888 0C1856 0 1792 0 1728 0C1664 0 1600 0 1536 0C1472 0 1408 0 1344 0C1280 0 1216 0 1152 0C1088 0 1024 0 960 0C896 0 832 0 768 0C704 0 640 0 576 0C512 0 448 0 384 0C320 0 256 0 192 0C128 0 64 0 32 0L0 0Z" fill="#3d63dd"></path><path d="M0 336L32 350.3C64 364.7 128 393.3 192 393.3C256 393.3 320 364.7 384 368.3C448 372 512 408 576 384.5C640 361 704 278 768 265.3C832 252.7 896 310.3 960 337.3C1024 364.3 1088 360.7 1152 364.3C1216 368 1280 379 1344 370C1408 361 1472 332 1536 303.2C1600 274.3 1664 245.7 1728 260.2C1792 274.7 1856 332.3 1888 361.2L1920 390L1920 204L1888 187.8C1856 171.7 1792 139.3 1728 114.2C1664 89 1600 71 1536 78.2C1472 85.3 1408 117.7 1344 121.3C1280 125 1216 100 1152 110.8C1088 121.7 1024 168.3 960 168.3C896 168.3 832 121.7 768 105.5C704 89.3 640 103.7 576 105.3C512 107 448 96 384 92.3C320 88.7 256 92.3 192 99.7C128 107 64 118 32 123.5L0 129Z" fill="#2288e2"></path><path d="M0 498L32 555.5C64 613 128 728 192 737C256 746 320 649 384 638.3C448 627.7 512 703.3 576 708.7C640 714 704 649 768 618.3C832 587.7 896 591.3 960 593.2C1024 595 1088 595 1152 620.2C1216 645.3 1280 695.7 1344 695.7C1408 695.7 1472 645.3 1536 607.5C1600 569.7 1664 544.3 1728 549.7C1792 555 1856 591 1888 609L1920 627L1920 388L1888 359.2C1856 330.3 1792 272.7 1728 258.2C1664 243.7 1600 272.3 1536 301.2C1472 330 1408 359 1344 368C1280 377 1216 366 1152 362.3C1088 358.7 1024 362.3 960 335.3C896 308.3 832 250.7 768 263.3C704 276 640 359 576 382.5C512 406 448 370 384 366.3C320 362.7 256 391.3 192 391.3C128 391.3 64 362.7 32 348.3L0 334Z" fill="#3e9ade"></path><path d="M0 649L32 699.3C64 749.7 128 850.3 192 857.5C256 864.7 320 778.3 384 764C448 749.7 512 807.3 576 812.8C640 818.3 704 771.7 768 742.8C832 714 896 703 960 712C1024 721 1088 750 1152 791.5C1216 833 1280 887 1344 887C1408 887 1472 833 1536 793.3C1600 753.7 1664 728.3 1728 713.8C1792 699.3 1856 695.7 1888 693.8L1920 692L1920 625L1888 607C1856 589 1792 553 1728 547.7C1664 542.3 1600 567.7 1536 605.5C1472 643.3 1408 693.7 1344 693.7C1280 693.7 1216 643.3 1152 618.2C1088 593 1024 593 960 591.2C896 589.3 832 585.7 768 616.3C704 647 640 712 576 706.7C512 701.3 448 625.7 384 636.3C320 647 256 744 192 735C128 726 64 611 32 553.5L0 496Z" fill="#2288e2"></path><path d="M0 1081L32 1081C64 1081 128 1081 192 1081C256 1081 320 1081 384 1081C448 1081 512 1081 576 1081C640 1081 704 1081 768 1081C832 1081 896 1081 960 1081C1024 1081 1088 1081 1152 1081C1216 1081 1280 1081 1344 1081C1408 1081 1472 1081 1536 1081C1600 1081 1664 1081 1728 1081C1792 1081 1856 1081 1888 1081L1920 1081L1920 690L1888 691.8C1856 693.7 1792 697.3 1728 711.8C1664 726.3 1600 751.7 1536 791.3C1472 831 1408 885 1344 885C1280 885 1216 831 1152 789.5C1088 748 1024 719 960 710C896 701 832 712 768 740.8C704 769.7 640 816.3 576 810.8C512 805.3 448 747.7 384 762C320 776.3 256 862.7 192 855.5C128 848.3 64 747.7 32 697.3L0 647Z" fill="#3d63dd"></path></svg>