<svg id="visual" viewBox="0 0 1920 1080" width="1920" height="1080" xmlns="http://www.w3.org/2000/svg" xmlns:xlink="http://www.w3.org/1999/xlink" version="1.1"><path d="M0 185L32 165.2C64 145.3 128 105.7 192 85.8C256 66 320 66 384 76.8C448 87.7 512 109.3 576 139.8C640 170.3 704 209.7 768 211.3C832 213 896 177 960 164.5C1024 152 1088 163 1152 155.8C1216 148.7 1280 123.3 1344 123.3C1408 123.3 1472 148.7 1536 143.3C1600 138 1664 102 1728 93C1792 84 1856 102 1888 111L1920 120L1920 0L1888 0C1856 0 1792 0 1728 0C1664 0 1600 0 1536 0C1472 0 1408 0 1344 0C1280 0 1216 0 1152 0C1088 0 1024 0 960 0C896 0 832 0 768 0C704 0 640 0 576 0C512 0 448 0 384 0C320 0 256 0 192 0C128 0 64 0 32 0L0 0Z" fill="#3d63dd"></path><path d="M0 314L32 296C64 278 128 242 192 225.8C256 209.7 320 213.3 384 218.8C448 224.3 512 231.7 576 271.3C640 311 704 383 768 383C832 383 896 311 960 280.3C1024 249.7 1088 260.3 1152 256.7C1216 253 1280 235 1344 240.3C1408 245.7 1472 274.3 1536 276.2C1600 278 1664 253 1728 242.3C1792 231.7 1856 235.3 1888 237.2L1920 239L1920 118L1888 109C1856 100 1792 82 1728 91C1664 100 1600 136 1536 141.3C1472 146.7 1408 121.3 1344 121.3C1280 121.3 1216 146.7 1152 153.8C1088 161 1024 150 960 162.5C896 175 832 211 768 209.3C704 207.7 640 168.3 576 137.8C512 107.3 448 85.7 384 74.8C320 64 256 64 192 83.8C128 103.7 64 143.3 32 163.2L0 183Z" fill="#2288e2"></path><path d="M0 725L32 687.2C64 649.3 128 573.7 192 528.7C256 483.7 320 469.3 384 489.2C448 509 512 563 576 597.2C640 631.3 704 645.7 768 625.8C832 606 896 552 960 586.2C1024 620.3 1088 742.7 1152 744.5C1216 746.3 1280 627.7 1344 580.8C1408 534 1472 559 1536 596.7C1600 634.3 1664 684.7 1728 657.7C1792 630.7 1856 526.3 1888 474.2L1920 422L1920 237L1888 235.2C1856 233.3 1792 229.7 1728 240.3C1664 251 1600 276 1536 274.2C1472 272.3 1408 243.7 1344 238.3C1280 233 1216 251 1152 254.7C1088 258.3 1024 247.7 960 278.3C896 309 832 381 768 381C704 381 640 309 576 269.3C512 229.7 448 222.3 384 216.8C320 211.3 256 207.7 192 223.8C128 240 64 276 32 294L0 312Z" fill="#3e9ade"></path><path d="M0 919L32 881.2C64 843.3 128 767.7 192 724.5C256 681.3 320 670.7 384 668.8C448 667 512 674 576 690.2C640 706.3 704 731.7 768 739C832 746.3 896 735.7 960 766.3C1024 797 1088 869 1152 860C1216 851 1280 761 1344 725C1408 689 1472 707 1536 753.7C1600 800.3 1664 875.7 1728 854C1792 832.3 1856 713.7 1888 654.3L1920 595L1920 420L1888 472.2C1856 524.3 1792 628.7 1728 655.7C1664 682.7 1600 632.3 1536 594.7C1472 557 1408 532 1344 578.8C1280 625.7 1216 744.3 1152 742.5C1088 740.7 1024 618.3 960 584.2C896 550 832 604 768 623.8C704 643.7 640 629.3 576 595.2C512 561 448 507 384 487.2C320 467.3 256 481.7 192 526.7C128 571.7 64 647.3 32 685.2L0 723Z" fill="#2288e2"></path><path d="M0 1081L32 1081C64 1081 128 1081 192 1081C256 1081 320 1081 384 1081C448 1081 512 1081 576 1081C640 1081 704 1081 768 1081C832 1081 896 1081 960 1081C1024 1081 1088 1081 1152 1081C1216 1081 1280 1081 1344 1081C1408 1081 1472 1081 1536 1081C1600 1081 1664 1081 1728 1081C1792 1081 1856 1081 1888 1081L1920 1081L1920 593L1888 652.3C1856 711.7 1792 830.3 1728 852C1664 873.7 1600 798.3 1536 751.7C1472 705 1408 687 1344 723C1280 759 1216 849 1152 858C1088 867 1024 795 960 764.3C896 733.7 832 744.3 768 737C704 729.7 640 704.3 576 688.2C512 672 448 665 384 666.8C320 668.7 256 679.3 192 722.5C128 765.7 64 841.3 32 879.2L0 917Z" fill="#3d63dd"></path></svg>