<svg id="visual" viewBox="0 0 960 540" width="960" height="540" xmlns="http://www.w3.org/2000/svg" xmlns:xlink="http://www.w3.org/1999/xlink" version="1.1"><path d="M0 93L160 93L160 39L320 39L320 44L480 44L480 82L640 82L640 33L800 33L800 39L960 39L960 66L960 0L960 0L800 0L800 0L640 0L640 0L480 0L480 0L320 0L320 0L160 0L160 0L0 0Z" fill="#0d43fc"></path><path d="M0 201L160 201L160 179L320 179L320 228L480 228L480 152L640 152L640 147L800 147L800 271L960 271L960 190L960 64L960 37L800 37L800 31L640 31L640 80L480 80L480 42L320 42L320 37L160 37L160 91L0 91Z" fill="#005dff"></path><path d="M0 379L160 379L160 352L320 352L320 314L480 314L480 336L640 336L640 347L800 347L800 374L960 374L960 347L960 188L960 269L800 269L800 145L640 145L640 150L480 150L480 226L320 226L320 177L160 177L160 199L0 199Z" fill="#0072ff"></path><path d="M0 482L160 482L160 465L320 465L320 411L480 411L480 406L640 406L640 460L800 460L800 455L960 455L960 395L960 345L960 372L800 372L800 345L640 345L640 334L480 334L480 312L320 312L320 350L160 350L160 377L0 377Z" fill="#0085ff"></path><path d="M0 541L160 541L160 541L320 541L320 541L480 541L480 541L640 541L640 541L800 541L800 541L960 541L960 541L960 393L960 453L800 453L800 458L640 458L640 404L480 404L480 409L320 409L320 463L160 463L160 480L0 480Z" fill="#0d96fc"></path></svg>