<svg id="visual" viewBox="0 0 960 540" width="960" height="540" xmlns="http://www.w3.org/2000/svg" xmlns:xlink="http://www.w3.org/1999/xlink" version="1.1"><path d="M0 50L160 50L160 93L320 93L320 98L480 98L480 50L640 50L640 136L800 136L800 141L960 141L960 147L960 0L960 0L800 0L800 0L640 0L640 0L480 0L480 0L320 0L320 0L160 0L160 0L0 0Z" fill="#0d96fc"></path><path d="M0 222L160 222L160 303L320 303L320 195L480 195L480 141L640 141L640 341L800 341L800 217L960 217L960 309L960 145L960 139L800 139L800 134L640 134L640 48L480 48L480 96L320 96L320 91L160 91L160 48L0 48Z" fill="#0085ff"></path><path d="M0 303L160 303L160 352L320 352L320 303L480 303L480 249L640 249L640 379L800 379L800 325L960 325L960 368L960 307L960 215L800 215L800 339L640 339L640 139L480 139L480 193L320 193L320 301L160 301L160 220L0 220Z" fill="#0072ff"></path><path d="M0 374L160 374L160 438L320 438L320 374L480 374L480 325L640 325L640 449L800 449L800 363L960 363L960 433L960 366L960 323L800 323L800 377L640 377L640 247L480 247L480 301L320 301L320 350L160 350L160 301L0 301Z" fill="#005dff"></path><path d="M0 541L160 541L160 541L320 541L320 541L480 541L480 541L640 541L640 541L800 541L800 541L960 541L960 541L960 431L960 361L800 361L800 447L640 447L640 323L480 323L480 372L320 372L320 436L160 436L160 372L0 372Z" fill="#0d43fc"></path></svg>