<svg id="visual" viewBox="0 0 960 540" width="960" height="540" xmlns="http://www.w3.org/2000/svg" xmlns:xlink="http://www.w3.org/1999/xlink" version="1.1"><path d="M0 44L160 44L160 93L320 93L320 60L480 60L480 87L640 87L640 60L800 60L800 71L960 71L960 66L960 0L960 0L800 0L800 0L640 0L640 0L480 0L480 0L320 0L320 0L160 0L160 0L0 0Z" fill="#0d96fc"></path><path d="M0 282L160 282L160 185L320 185L320 168L480 168L480 168L640 168L640 168L800 168L800 255L960 255L960 249L960 64L960 69L800 69L800 58L640 58L640 85L480 85L480 58L320 58L320 91L160 91L160 42L0 42Z" fill="#0085ff"></path><path d="M0 341L160 341L160 266L320 266L320 255L480 255L480 233L640 233L640 217L800 217L800 320L960 320L960 298L960 247L960 253L800 253L800 166L640 166L640 166L480 166L480 166L320 166L320 183L160 183L160 280L0 280Z" fill="#0072ff"></path><path d="M0 455L160 455L160 492L320 492L320 449L480 449L480 449L640 449L640 438L800 438L800 498L960 498L960 428L960 296L960 318L800 318L800 215L640 215L640 231L480 231L480 253L320 253L320 264L160 264L160 339L0 339Z" fill="#005dff"></path><path d="M0 541L160 541L160 541L320 541L320 541L480 541L480 541L640 541L640 541L800 541L800 541L960 541L960 541L960 426L960 496L800 496L800 436L640 436L640 447L480 447L480 447L320 447L320 490L160 490L160 453L0 453Z" fill="#0d43fc"></path></svg>