<svg id="visual" viewBox="0 0 960 540" width="960" height="540" xmlns="http://www.w3.org/2000/svg" xmlns:xlink="http://www.w3.org/1999/xlink" version="1.1"><path d="M0 93L160 93L160 71L320 71L320 93L480 93L480 87L640 87L640 71L800 71L800 66L960 66L960 50L960 0L960 0L800 0L800 0L640 0L640 0L480 0L480 0L320 0L320 0L160 0L160 0L0 0Z" fill="#0d43fc"></path><path d="M0 158L160 158L160 168L320 168L320 158L480 158L480 158L640 158L640 141L800 141L800 179L960 179L960 109L960 48L960 64L800 64L800 69L640 69L640 85L480 85L480 91L320 91L320 69L160 69L160 91L0 91Z" fill="#005dff"></path><path d="M0 303L160 303L160 287L320 287L320 266L480 266L480 287L640 287L640 347L800 347L800 276L960 276L960 179L960 107L960 177L800 177L800 139L640 139L640 156L480 156L480 156L320 156L320 166L160 166L160 156L0 156Z" fill="#0072ff"></path><path d="M0 487L160 487L160 460L320 460L320 428L480 428L480 449L640 449L640 428L800 428L800 428L960 428L960 406L960 177L960 274L800 274L800 345L640 345L640 285L480 285L480 264L320 264L320 285L160 285L160 301L0 301Z" fill="#0085ff"></path><path d="M0 541L160 541L160 541L320 541L320 541L480 541L480 541L640 541L640 541L800 541L800 541L960 541L960 541L960 404L960 426L800 426L800 426L640 426L640 447L480 447L480 426L320 426L320 458L160 458L160 485L0 485Z" fill="#0d96fc"></path></svg>