<svg id="visual" viewBox="0 0 1920 1080" width="1920" height="1080" xmlns="http://www.w3.org/2000/svg" xmlns:xlink="http://www.w3.org/1999/xlink" version="1.1"><path d="M0 498L32 474.5C64 451 128 404 192 368C256 332 320 307 384 299.8C448 292.7 512 303.3 576 285.3C640 267.3 704 220.7 768 186.5C832 152.3 896 130.7 960 145C1024 159.3 1088 209.7 1152 254.7C1216 299.7 1280 339.3 1344 352C1408 364.7 1472 350.3 1536 355.7C1600 361 1664 386 1728 386C1792 386 1856 361 1888 348.5L1920 336L1920 0L1888 0C1856 0 1792 0 1728 0C1664 0 1600 0 1536 0C1472 0 1408 0 1344 0C1280 0 1216 0 1152 0C1088 0 1024 0 960 0C896 0 832 0 768 0C704 0 640 0 576 0C512 0 448 0 384 0C320 0 256 0 192 0C128 0 64 0 32 0L0 0Z" fill="#3e9ade"></path><path d="M0 714L32 714C64 714 128 714 192 699.5C256 685 320 656 384 634.3C448 612.7 512 598.3 576 596.7C640 595 704 606 768 606C832 606 896 595 960 591.3C1024 587.7 1088 591.3 1152 623.8C1216 656.3 1280 717.7 1344 712.3C1408 707 1472 635 1536 626C1600 617 1664 671 1728 674.5C1792 678 1856 631 1888 607.5L1920 584L1920 334L1888 346.5C1856 359 1792 384 1728 384C1664 384 1600 359 1536 353.7C1472 348.3 1408 362.7 1344 350C1280 337.3 1216 297.7 1152 252.7C1088 207.7 1024 157.3 960 143C896 128.7 832 150.3 768 184.5C704 218.7 640 265.3 576 283.3C512 301.3 448 290.7 384 297.8C320 305 256 330 192 366C128 402 64 449 32 472.5L0 496Z" fill="#248ae1"></path><path d="M0 822L32 847.2C64 872.3 128 922.7 192 915.5C256 908.3 320 843.7 384 813C448 782.3 512 785.7 576 787.3C640 789 704 789 768 785.5C832 782 896 775 960 775C1024 775 1088 782 1152 805.3C1216 828.7 1280 868.3 1344 872C1408 875.7 1472 843.3 1536 857.8C1600 872.3 1664 933.7 1728 930C1792 926.3 1856 857.7 1888 823.3L1920 789L1920 582L1888 605.5C1856 629 1792 676 1728 672.5C1664 669 1600 615 1536 624C1472 633 1408 705 1344 710.3C1280 715.7 1216 654.3 1152 621.8C1088 589.3 1024 585.7 960 589.3C896 593 832 604 768 604C704 604 640 593 576 594.7C512 596.3 448 610.7 384 632.3C320 654 256 683 192 697.5C128 712 64 712 32 712L0 712Z" fill="#2478e2"></path><path d="M0 1081L32 1081C64 1081 128 1081 192 1081C256 1081 320 1081 384 1081C448 1081 512 1081 576 1081C640 1081 704 1081 768 1081C832 1081 896 1081 960 1081C1024 1081 1088 1081 1152 1081C1216 1081 1280 1081 1344 1081C1408 1081 1472 1081 1536 1081C1600 1081 1664 1081 1728 1081C1792 1081 1856 1081 1888 1081L1920 1081L1920 787L1888 821.3C1856 855.7 1792 924.3 1728 928C1664 931.7 1600 870.3 1536 855.8C1472 841.3 1408 873.7 1344 870C1280 866.3 1216 826.7 1152 803.3C1088 780 1024 773 960 773C896 773 832 780 768 783.5C704 787 640 787 576 785.3C512 783.7 448 780.3 384 811C320 841.7 256 906.3 192 913.5C128 920.7 64 870.3 32 845.2L0 820Z" fill="#3d63dd"></path></svg>